# xmcd
#
# Track frame offsets: 
#        300
#        21832
#        52440
#        88664
#        105642
#        162809
#        211683
#        289047
#        308289
#
# Disc length: 4192 seconds
#
# Revision: 5
# Processed by: cddbd v1.5.2PL0 Copyright (c) Steve Scherf et al.
# Submitted via: ExactAudioCopy v1.0b1
#
DISCID=72105c09
DTITLE=Albert Collins - Molten Ice
DYEAR=1973
DGENRE=Texas Blues
TTITLE0=Intro
TTITLE1=All About My Girl
TTITLE2=I've Got A Mind To Travel
TTITLE3=Things That I Used To Do
TTITLE4=Frosty
TTITLE5=Wah Heat
TTITLE6=Can't You See What You're Doing To Me
TTITLE7=Cold Tremor
TTITLE8=Johnny B Cool
EXTD=Toronto, 1973, with the Moe Peters Band YEAR: 1992
EXTT0=
EXTT1=
EXTT2=
EXTT3=
EXTT4=
EXTT5=
EXTT6=
EXTT7=
EXTT8=
PLAYORDER=
